<svg width="31" height="27" viewBox="0 0 31 27" fill="none" xmlns="http://www.w3.org/2000/svg">
<path fill-rule="evenodd" clip-rule="evenodd" d="M16.858 0C10.5938 0 5.30468 4.20502 3.71456 9.91427H1.30703C1.15772 9.91514 1.01154 9.95677 0.884577 10.0346C0.757613 10.1124 0.65478 10.2234 0.587389 10.3553C0.519998 10.4873 0.490659 10.6351 0.502601 10.7825C0.514542 10.9299 0.5673 11.0711 0.655072 11.1907L4.10658 15.8662C4.18191 15.9686 4.28062 16.052 4.39466 16.1094C4.5087 16.1669 4.63484 16.1969 4.7628 16.1969C4.89075 16.1969 5.01689 16.1669 5.13094 16.1094C5.24498 16.052 5.34369 15.9686 5.41901 15.8662L8.86413 11.1907C8.95201 11.071 9.00478 10.9295 9.01664 10.7819C9.0285 10.6344 8.99897 10.4864 8.93133 10.3544C8.86368 10.2224 8.76054 10.1114 8.63326 10.0338C8.50599 9.95611 8.35954 9.91475 8.21005 9.91427H5.98787C7.49817 5.40232 11.7855 2.1605 16.858 2.1605C23.1967 2.1605 28.3162 7.22179 28.3162 13.4989C28.3162 19.7761 23.1967 24.8395 16.858 24.8395C13.0805 24.8395 9.54976 22.9958 7.41322 19.9108C7.24939 19.6753 6.99791 19.5137 6.71394 19.4615C6.42997 19.4093 6.13667 19.4707 5.89839 19.6323C5.77972 19.7127 5.67826 19.8155 5.59984 19.9348C5.52143 20.0542 5.46761 20.1877 5.44147 20.3277C5.41534 20.4677 5.4174 20.6114 5.44755 20.7506C5.47771 20.8898 5.53534 21.0217 5.61716 21.1388C8.15918 24.8092 12.3637 27 16.858 27C24.3758 27 30.5 20.9437 30.5 13.4989C30.5 6.05418 24.3758 0 16.858 0ZM16.1017 6.65875C15.9584 6.6593 15.8167 6.68779 15.6845 6.74259C15.5524 6.79739 15.4325 6.87742 15.3316 6.97812C15.2307 7.07883 15.1508 7.19822 15.0965 7.3295C15.0422 7.46078 15.0145 7.60136 15.0151 7.74322V14.4252C15.015 14.601 15.0582 14.7742 15.141 14.9297C15.2238 15.0852 15.3436 15.2184 15.4902 15.3176L19.1611 17.7989C19.3997 17.9603 19.6932 18.0214 19.9772 17.9688C20.2612 17.9162 20.5125 17.7541 20.676 17.5182C20.8383 17.2822 20.8996 16.992 20.8465 16.7113C20.7934 16.4306 20.6302 16.1821 20.3926 16.0202L17.1968 13.8513V7.74322C17.1973 7.60065 17.1694 7.45938 17.1146 7.32755C17.0597 7.19573 16.9791 7.07595 16.8773 6.97514C16.7755 6.87433 16.6545 6.79447 16.5214 6.74016C16.3883 6.68586 16.2456 6.65819 16.1017 6.65875Z" fill="white"/>
</svg>
