<svg width="21" height="24" viewBox="0 0 21 24" fill="none" xmlns="http://www.w3.org/2000/svg">
<path d="M3.67108 23.5762C2.70748 23.5762 1.75136 23.1787 1.0689 22.4063C-0.115923 21.064 -0.0709293 18.9981 1.17014 17.7083L4.80704 13.9327C5.33571 13.3853 5.51945 12.5942 5.29071 11.8705L2.60983 3.34049C2.41486 2.71433 2.75981 2.04319 3.38223 1.83697L8.83014 0.0597413C9.46005 -0.146479 10.1387 0.19847 10.3449 0.828372L14.5443 13.689C14.9117 14.8101 14.5293 16.0474 13.5994 16.7711L5.78931 22.8451C5.16315 23.3363 4.41346 23.5762 3.67108 23.5762ZM3.61109 2.53056C3.36364 2.6093 3.22863 2.87551 3.30739 3.12299L5.98827 11.653C6.29571 12.6316 6.04452 13.7002 5.33211 14.4388L1.69521 18.2144C0.712843 19.2342 0.679104 20.8652 1.61272 21.9264C2.56884 23.01 4.20722 23.1637 5.34705 22.2751L13.1572 16.2011C13.8471 15.6649 14.1283 14.7463 13.8546 13.9177L9.65518 1.05701C9.5727 0.809559 9.30272 0.670811 9.05902 0.753311L3.61109 2.53056Z" fill="#232A36"/>
<path d="M10.9226 18.7621C10.7914 18.7621 10.6639 18.6909 10.6001 18.5634C10.2327 17.8473 10.0377 17.0074 10.0377 16.1338C10.0377 13.7193 11.5262 11.7057 13.5023 11.4506C13.701 11.4244 13.8848 11.5669 13.911 11.7656C13.9372 11.9643 13.7985 12.148 13.5961 12.1743C11.9838 12.3842 10.7652 14.0865 10.7652 16.1375C10.7652 16.8949 10.9302 17.6223 11.2451 18.2372C11.3351 18.4172 11.2639 18.6346 11.0876 18.7284C11.0352 18.7471 10.9789 18.7621 10.9226 18.7621Z" fill="#232A36"/>
<path d="M3.69723 5.95001C3.5435 5.95001 3.40101 5.85252 3.34853 5.69504C3.28854 5.50382 3.39353 5.29761 3.58475 5.23762L10.675 3.00295C10.8662 2.94296 11.0724 3.04795 11.1324 3.23917C11.1924 3.43039 11.0874 3.6366 10.8962 3.69659L3.80595 5.93126C3.76846 5.94251 3.73472 5.95001 3.69723 5.95001Z" fill="#232A36"/>
<path d="M9.7751 23.9999C8.8115 23.9999 7.85164 23.5987 7.17292 22.8263C6.87296 22.4889 6.648 22.1065 6.50553 21.6865C6.44179 21.4953 6.54303 21.2891 6.7305 21.2253C6.92172 21.1578 7.12793 21.2628 7.19169 21.4503C7.30417 21.7765 7.48039 22.0765 7.71661 22.3427C8.66898 23.4263 10.3075 23.5837 11.4509 22.6989L19.2611 16.6211C19.951 16.0849 20.2322 15.17 19.9622 14.3414L15.7554 1.48073C15.7179 1.36074 15.6354 1.26701 15.5267 1.20702C15.4142 1.14703 15.283 1.13578 15.163 1.17703L10.5698 2.67681C10.3786 2.74055 10.1724 2.63556 10.1124 2.44434C10.0487 2.25312 10.1537 2.04691 10.3449 1.98315L14.938 0.483374C15.2455 0.385888 15.5717 0.412133 15.8604 0.558363C16.1454 0.704592 16.3516 0.952049 16.4491 1.25575L20.6523 14.1126C21.0197 15.2299 20.641 16.4672 19.7074 17.1947L11.8973 23.2725C11.2674 23.7637 10.5175 23.9999 9.7751 23.9999Z" fill="#232A36"/>
<path d="M17.0266 19.1857C16.8954 19.1857 16.7679 19.1145 16.7042 18.987C16.3367 18.2709 16.1417 17.431 16.1417 16.5574C16.1417 14.1428 17.6302 12.1293 19.6063 11.8742C19.8051 11.848 19.9888 11.9904 20.015 12.1892C20.0412 12.3879 19.9025 12.5716 19.7001 12.5978C18.0878 12.8078 16.8692 14.5101 16.8692 16.5611C16.8692 17.3185 17.0342 18.0459 17.3491 18.6608C17.4391 18.8408 17.3679 19.0582 17.1917 19.152C17.1392 19.1745 17.0829 19.1857 17.0266 19.1857Z" fill="#232A36"/>
<path d="M11.4849 5.84525C11.3311 5.84525 11.1887 5.74776 11.1399 5.59029C11.0799 5.39906 11.1849 5.19286 11.3761 5.13287L16.7828 3.42312C16.9777 3.36313 17.1802 3.46811 17.2402 3.65933C17.3002 3.85056 17.1952 4.05676 17.004 4.11676L11.5973 5.8265C11.5561 5.8415 11.5186 5.84525 11.4849 5.84525Z" fill="#232A36"/>
</svg>
