<svg width="24" height="20" viewBox="0 0 24 20" fill="none" xmlns="http://www.w3.org/2000/svg">
<path fill-rule="evenodd" clip-rule="evenodd" d="M8.15878 0.25C8.15137 0.250167 8.14396 0.25054 8.13657 0.251119C8.12441 0.251104 8.11225 0.251645 8.10013 0.252741C8.08522 0.254068 8.07039 0.256234 8.05571 0.259226C8.04996 0.260182 8.04422 0.261263 8.03851 0.26247C8.03226 0.264479 8.02605 0.266641 8.0199 0.268955C8.01207 0.270882 8.0043 0.273045 7.9966 0.275441L0.272689 3.18055C0.179038 3.21578 0.100788 3.28485 0.0523072 3.37509C0.00382647 3.46532 -0.0116308 3.57066 0.00877379 3.67176L0.974571 8.4563C0.99404 8.55274 1.04493 8.6393 1.11869 8.70142C1.19246 8.76355 1.2846 8.79746 1.37963 8.79746H5.59512V19.021C5.59513 19.1348 5.63873 19.2439 5.71632 19.3243C5.79392 19.4048 5.89917 19.45 6.00891 19.45H17.9911C18.1009 19.45 18.2061 19.4048 18.2837 19.3243C18.3613 19.2439 18.4049 19.1348 18.4049 19.021V8.79746H22.6204C22.7154 8.79745 22.8076 8.76353 22.8813 8.70141C22.9551 8.63928 23.006 8.55273 23.0254 8.4563L23.9912 3.67176C24.0116 3.57066 23.9962 3.46532 23.9477 3.37509C23.8992 3.28485 23.821 3.21578 23.7273 3.18055L16.0035 0.275425L16.0003 0.274614C15.9877 0.270195 15.9749 0.266407 15.962 0.263264C15.9472 0.260254 15.9322 0.258088 15.9171 0.256778C15.9078 0.254825 15.8985 0.253203 15.8891 0.251914C15.8575 0.249774 15.8258 0.251406 15.7945 0.256778C15.7854 0.258622 15.7763 0.260785 15.7673 0.263264C15.7444 0.268845 15.722 0.276439 15.7004 0.285965C15.6946 0.287997 15.6889 0.29016 15.6833 0.292451C14.7015 0.783129 13.4135 1.08784 12.0007 1.08784C10.5879 1.08784 9.29984 0.783129 8.31803 0.292451C8.31055 0.289522 8.30299 0.286818 8.29536 0.284343C8.28449 0.27953 8.27343 0.275202 8.2622 0.271371C8.24761 0.266742 8.23278 0.262952 8.21778 0.260021C8.20602 0.257869 8.19418 0.256246 8.18228 0.255156C8.17465 0.253853 8.16698 0.252772 8.15929 0.251914L8.15878 0.25ZM7.86884 1.23601C8.48054 2.99091 10.0998 4.23884 12.0002 4.23884C13.9005 4.23884 15.5198 2.99091 16.1316 1.23601L23.1078 3.85992L22.2845 7.93909H17.9913C17.8816 7.9391 17.7763 7.98431 17.6987 8.06476C17.6211 8.14522 17.5775 8.25434 17.5775 8.36812V9.79483V18.5917H6.4229V9.79483V8.36812C6.42289 8.25434 6.37929 8.14522 6.30169 8.06476C6.22409 7.98431 6.11884 7.9391 6.0091 7.93909H1.71596L0.892542 3.85992L7.86884 1.23601ZM12.0002 1.9454C10.8596 1.9454 9.79166 1.76249 8.85917 1.43811C9.45885 2.59684 10.6342 3.3808 12.0002 3.3808C13.3661 3.3808 14.5415 2.59684 15.1412 1.43811C14.2087 1.76249 13.1408 1.9454 12.0002 1.9454Z" fill="#232A36"/>
</svg>
