<svg width="24" height="25" viewBox="0 0 24 25" fill="none" xmlns="http://www.w3.org/2000/svg">
<path d="M9.59 4.92323C9.82231 4.68955 10.1088 4.51688 10.4239 4.42058C10.739 4.32427 11.073 4.30732 11.3963 4.37123C11.7195 4.43513 12.022 4.57791 12.2768 4.78688C12.5315 4.99585 12.7307 5.26452 12.8566 5.56903C12.9825 5.87353 13.0313 6.20443 12.9985 6.5323C12.9657 6.86017 12.8524 7.17486 12.6687 7.44839C12.4849 7.72193 12.2365 7.94583 11.9454 8.1002C11.6542 8.25457 11.3295 8.33462 11 8.33323H2M12.59 19.7432C12.8223 19.9769 13.1088 20.1496 13.4239 20.2459C13.739 20.3422 14.073 20.3591 14.3963 20.2952C14.7195 20.2313 15.022 20.0886 15.2768 19.8796C15.5315 19.6706 15.7307 19.4019 15.8566 19.0974C15.9825 18.7929 16.0313 18.462 15.9985 18.1342C15.9657 17.8063 15.8524 17.4916 15.6687 17.2181C15.4849 16.9445 15.2365 16.7206 14.9454 16.5663C14.6542 16.4119 14.3295 16.3319 14 16.3332H2M17.73 8.06323C18.0208 7.77312 18.3787 7.55915 18.7719 7.44025C19.1652 7.32134 19.5816 7.30117 19.9845 7.38152C20.3874 7.46187 20.7642 7.64025 21.0817 7.9009C21.3993 8.16155 21.6477 8.49643 21.805 8.87593C21.9623 9.25542 22.0236 9.66783 21.9836 10.0767C21.9436 10.4855 21.8035 10.8782 21.5756 11.22C21.3477 11.5618 21.0391 11.8422 20.6771 12.0364C20.3151 12.2305 19.9108 12.3325 19.5 12.3332H2" stroke="white" stroke-width="2" stroke-linecap="round" stroke-linejoin="round"/>
</svg>
